<?xml version="1.0" encoding="iso-8859-1"?>
<!-- Uploaded to: SVG Repo, www.svgrepo.com, Generator: SVG Repo Mixer Tools -->
<svg fill="#000000" height="800px" width="800px" version="1.1" id="Layer_1" xmlns="http://www.w3.org/2000/svg" xmlns:xlink="http://www.w3.org/1999/xlink" 
	 viewBox="0 0 511.999 511.999" xml:space="preserve">
<g>
	<g>
		<path d="M478.859,111.609H340.506V77.877c0-9.152-7.419-16.57-16.57-16.57H188.065c-9.152,0-16.57,7.419-16.57,16.57v33.731
			H33.141C14.867,111.609,0,126.476,0,144.75v65.016c0,11.835,6.34,22.775,16.57,28.686v195.67c0,9.152,7.419,16.57,16.57,16.57
			h445.719c9.152,0,16.57-7.419,16.57-16.57V238.45c10.23-5.909,16.57-16.849,16.57-28.686v-65.016
			C512,126.476,497.133,111.609,478.859,111.609z M204.636,94.447h102.729v17.161H204.636V94.447z M462.289,417.55H49.711V256.974
			l153.628,85.78l6.267,3.499v13.305c0,9.152,7.419,16.57,16.57,16.57h59.65h0.001c9.152,0,16.57-7.419,16.57-16.57v-13.304
			l159.893-89.28V417.55z M242.745,342.989c0-14.838,0-4.151,0-36.983h26.509v36.983H242.745z M478.859,209.765
			c-8.041,4.49-168.977,94.353-176.464,98.532v-9.027c0-14.56-11.845-26.405-26.405-26.405h-39.98
			c-14.56,0-26.405,11.845-26.405,26.405v9.026c-4.947-2.763-174.298-97.322-176.464-98.532V144.75h445.718V209.765z"/>
	</g>
</g>
</svg>